<svg viewBox="0 0 1200 600" xmlns="http://www.w3.org/2000/svg" role="img" aria-label="NFL-style field diagram">
  <defs>
    <linearGradient id="grass" x1="0%" y1="0%" x2="0%" y2="100%">
      <stop offset="0%" stop-color="#347d5b" />
      <stop offset="100%" stop-color="#18553d" />
    </linearGradient>
    <pattern id="turf" width="80" height="80" patternUnits="userSpaceOnUse">
      <rect width="80" height="80" fill="rgba(255,255,255,0.04)" />
      <path d="M0 40H80" stroke="rgba(255,255,255,0.035)" stroke-width="8" />
    </pattern>
  </defs>

  <rect x="0" y="0" width="1200" height="600" rx="28" ry="28" fill="url(#grass)" />
  <rect x="0" y="0" width="1200" height="600" rx="28" ry="28" fill="url(#turf)" />
  <rect x="40" y="50" width="1120" height="500" rx="10" ry="10" fill="none" stroke="#f8fafc" stroke-width="6" />

  <rect x="40" y="50" width="93.33" height="500" fill="rgba(15,61,53,0.22)" stroke="#f8fafc" stroke-width="5" />
  <rect x="1066.67" y="50" width="93.33" height="500" fill="rgba(15,61,53,0.22)" stroke="#f8fafc" stroke-width="5" />

  <g stroke="#f8fafc" stroke-linecap="square">
    <line x1="133.33" y1="50" x2="133.33" y2="550" stroke-width="5" />
    <line x1="1066.67" y1="50" x2="1066.67" y2="550" stroke-width="5" />

    <line x1="180" y1="50" x2="180" y2="550" stroke-width="2" opacity="0.65" />
    <line x1="226.67" y1="50" x2="226.67" y2="550" stroke-width="4" />
    <line x1="273.33" y1="50" x2="273.33" y2="550" stroke-width="2" opacity="0.65" />
    <line x1="320" y1="50" x2="320" y2="550" stroke-width="4" />
    <line x1="366.67" y1="50" x2="366.67" y2="550" stroke-width="2" opacity="0.65" />
    <line x1="413.33" y1="50" x2="413.33" y2="550" stroke-width="4" />
    <line x1="460" y1="50" x2="460" y2="550" stroke-width="2" opacity="0.65" />
    <line x1="506.67" y1="50" x2="506.67" y2="550" stroke-width="4" />
    <line x1="553.33" y1="50" x2="553.33" y2="550" stroke-width="2" opacity="0.65" />
    <line x1="600" y1="50" x2="600" y2="550" stroke-width="5" />
    <line x1="646.67" y1="50" x2="646.67" y2="550" stroke-width="2" opacity="0.65" />
    <line x1="693.33" y1="50" x2="693.33" y2="550" stroke-width="4" />
    <line x1="740" y1="50" x2="740" y2="550" stroke-width="2" opacity="0.65" />
    <line x1="786.67" y1="50" x2="786.67" y2="550" stroke-width="4" />
    <line x1="833.33" y1="50" x2="833.33" y2="550" stroke-width="2" opacity="0.65" />
    <line x1="880" y1="50" x2="880" y2="550" stroke-width="4" />
    <line x1="926.67" y1="50" x2="926.67" y2="550" stroke-width="2" opacity="0.65" />
    <line x1="973.33" y1="50" x2="973.33" y2="550" stroke-width="4" />
    <line x1="1020" y1="50" x2="1020" y2="550" stroke-width="2" opacity="0.65" />
  </g>

  <g stroke="#f8fafc" stroke-width="3" opacity="0.85">
    <line x1="180" y1="155" x2="180" y2="185" />
    <line x1="180" y1="415" x2="180" y2="445" />
    <line x1="226.67" y1="155" x2="226.67" y2="185" />
    <line x1="226.67" y1="415" x2="226.67" y2="445" />
    <line x1="273.33" y1="155" x2="273.33" y2="185" />
    <line x1="273.33" y1="415" x2="273.33" y2="445" />
    <line x1="320" y1="155" x2="320" y2="185" />
    <line x1="320" y1="415" x2="320" y2="445" />
    <line x1="366.67" y1="155" x2="366.67" y2="185" />
    <line x1="366.67" y1="415" x2="366.67" y2="445" />
    <line x1="413.33" y1="155" x2="413.33" y2="185" />
    <line x1="413.33" y1="415" x2="413.33" y2="445" />
    <line x1="460" y1="155" x2="460" y2="185" />
    <line x1="460" y1="415" x2="460" y2="445" />
    <line x1="506.67" y1="155" x2="506.67" y2="185" />
    <line x1="506.67" y1="415" x2="506.67" y2="445" />
    <line x1="553.33" y1="155" x2="553.33" y2="185" />
    <line x1="553.33" y1="415" x2="553.33" y2="445" />
    <line x1="600" y1="155" x2="600" y2="185" />
    <line x1="600" y1="415" x2="600" y2="445" />
    <line x1="646.67" y1="155" x2="646.67" y2="185" />
    <line x1="646.67" y1="415" x2="646.67" y2="445" />
    <line x1="693.33" y1="155" x2="693.33" y2="185" />
    <line x1="693.33" y1="415" x2="693.33" y2="445" />
    <line x1="740" y1="155" x2="740" y2="185" />
    <line x1="740" y1="415" x2="740" y2="445" />
    <line x1="786.67" y1="155" x2="786.67" y2="185" />
    <line x1="786.67" y1="415" x2="786.67" y2="445" />
    <line x1="833.33" y1="155" x2="833.33" y2="185" />
    <line x1="833.33" y1="415" x2="833.33" y2="445" />
    <line x1="880" y1="155" x2="880" y2="185" />
    <line x1="880" y1="415" x2="880" y2="445" />
    <line x1="926.67" y1="155" x2="926.67" y2="185" />
    <line x1="926.67" y1="415" x2="926.67" y2="445" />
    <line x1="973.33" y1="155" x2="973.33" y2="185" />
    <line x1="973.33" y1="415" x2="973.33" y2="445" />
    <line x1="1020" y1="155" x2="1020" y2="185" />
    <line x1="1020" y1="415" x2="1020" y2="445" />
  </g>

  <g fill="#f8fafc" font-family="Inter, Arial, sans-serif" font-size="34" font-weight="800" text-anchor="middle" stroke="#0f3d35" stroke-width="5" paint-order="stroke">
    <text x="226.67" y="142">10</text>
    <text x="320" y="142">20</text>
    <text x="413.33" y="142">30</text>
    <text x="506.67" y="142">40</text>
    <text x="600" y="142">50</text>
    <text x="693.33" y="142">40</text>
    <text x="786.67" y="142">30</text>
    <text x="880" y="142">20</text>
    <text x="973.33" y="142">10</text>
    <text x="226.67" y="493" transform="rotate(180 226.67 493)">10</text>
    <text x="320" y="493" transform="rotate(180 320 493)">20</text>
    <text x="413.33" y="493" transform="rotate(180 413.33 493)">30</text>
    <text x="506.67" y="493" transform="rotate(180 506.67 493)">40</text>
    <text x="600" y="493" transform="rotate(180 600 493)">50</text>
    <text x="693.33" y="493" transform="rotate(180 693.33 493)">40</text>
    <text x="786.67" y="493" transform="rotate(180 786.67 493)">30</text>
    <text x="880" y="493" transform="rotate(180 880 493)">20</text>
    <text x="973.33" y="493" transform="rotate(180 973.33 493)">10</text>
  </g>
</svg>
